<svg xmlns="http://www.w3.org/2000/svg" version="1.1" xmlns:xlink="http://www.w3.org/1999/xlink" viewBox="0 0 200 200"><rect width="200" height="200" fill="url('#gradient')"></rect><defs><linearGradient id="gradient" gradientTransform="rotate(36 0.5 0.5)"><stop offset="0%" stop-color="#e6cfcf"></stop><stop offset="100%" stop-color="#ffb6c1"></stop></linearGradient></defs><g><g fill="#e8f3dd" transform="matrix(1.7346345056159087,0,0,1.7346345056159087,7.11907364089852,109.41019702058672)" stroke="#49e89e" stroke-width="0"><path d="M5.39-2.34L5.39-2.34Q6.08-2.34 6.46-2.72Q6.85-3.10 6.84-3.77L6.84-3.77L9.92-3.77Q9.92-2.03 8.68-0.92Q7.43 0.20 5.47 0.20L5.47 0.20Q3.16 0.20 1.84-1.25Q0.51-2.70 0.51-5.25L0.51-5.25L0.51-5.39Q0.51-6.99 1.10-8.22Q1.69-9.44 2.80-10.10Q3.92-10.76 5.44-10.76L5.44-10.76Q7.50-10.76 8.71-9.62Q9.92-8.48 9.92-6.52L9.92-6.52L6.84-6.52Q6.84-7.34 6.44-7.78Q6.04-8.22 5.36-8.22L5.36-8.22Q4.08-8.22 3.87-6.59L3.87-6.59Q3.80-6.07 3.80-5.17L3.80-5.17Q3.80-3.57 4.18-2.96Q4.56-2.34 5.39-2.34ZM10.91-4.82L10.90-5.38Q10.90-6.96 11.51-8.20Q12.13-9.43 13.28-10.10Q14.43-10.76 15.99-10.76L15.99-10.76Q18.36-10.76 19.73-9.29Q21.09-7.82 21.09-5.29L21.09-5.29L21.09-5.18Q21.09-2.71 19.72-1.25Q18.35 0.20 16.01 0.20L16.01 0.20Q13.75 0.20 12.38-1.16Q11.02-2.51 10.91-4.82L10.91-4.82ZM14.20-5.77L14.19-5.18Q14.19-3.71 14.65-3.03Q15.11-2.34 16.01-2.34L16.01-2.34Q17.76-2.34 17.80-5.05L17.80-5.05L17.80-5.38Q17.80-8.22 15.99-8.22L15.99-8.22Q14.34-8.22 14.20-5.77L14.20-5.77ZM22.14-4.82L22.13-5.38Q22.13-6.96 22.74-8.20Q23.36-9.43 24.51-10.10Q25.66-10.76 27.22-10.76L27.22-10.76Q29.59-10.76 30.96-9.29Q32.32-7.82 32.32-5.29L32.32-5.29L32.32-5.18Q32.32-2.71 30.95-1.25Q29.58 0.20 27.24 0.20L27.24 0.20Q24.98 0.20 23.61-1.16Q22.25-2.51 22.14-4.82L22.14-4.82ZM25.43-5.77L25.42-5.18Q25.42-3.71 25.88-3.03Q26.34-2.34 27.24-2.34L27.24-2.34Q28.99-2.34 29.03-5.05L29.03-5.05L29.03-5.38Q29.03-8.22 27.22-8.22L27.22-8.22Q25.57-8.22 25.43-5.77L25.43-5.77ZM40.32 0L38.02-3.94L37.09-3.01L37.09 0L33.80 0L33.80-15.01L37.09-15.01L37.09-7.04L37.42-7.48L39.90-10.57L43.85-10.57L40.15-6.22L44.09 0L40.32 0ZM48.18-10.57L48.18 0L44.88 0L44.88-10.57L48.18-10.57ZM44.69-13.29L44.69-13.29Q44.69-13.99 45.20-14.44Q45.70-14.89 46.51-14.89Q47.32-14.89 47.83-14.44Q48.34-13.99 48.34-13.29Q48.34-12.59 47.83-12.14Q47.32-11.69 46.51-11.69Q45.70-11.69 45.20-12.14Q44.69-12.59 44.69-13.29ZM50.15-10.57L53.23-10.57L53.34-9.33Q54.43-10.76 56.36-10.76L56.36-10.76Q58.01-10.76 58.82-9.78Q59.64-8.79 59.67-6.81L59.67-6.81L59.67 0L56.37 0L56.37-6.67Q56.37-7.47 56.04-7.85Q55.72-8.22 54.87-8.22L54.87-8.22Q53.91-8.22 53.44-7.46L53.44-7.46L53.44 0L50.15 0L50.15-10.57ZM61.10-5.24L61.10-5.36Q61.10-6.96 61.63-8.19Q62.16-9.42 63.14-10.09Q64.13-10.76 65.44-10.76L65.44-10.76Q67.09-10.76 68.02-9.65L68.02-9.65L68.13-10.57L71.12-10.57L71.12-0.40Q71.12 1.00 70.47 2.03Q69.82 3.06 68.59 3.61Q67.36 4.16 65.74 4.16L65.74 4.16Q64.58 4.16 63.49 3.72Q62.40 3.28 61.83 2.58L61.83 2.58L63.20 0.64Q64.12 1.73 65.63 1.73L65.63 1.73Q67.81 1.73 67.81-0.52L67.81-0.52L67.81-0.85Q66.87 0.20 65.42 0.20L65.42 0.20Q63.49 0.20 62.29-1.28Q61.10-2.76 61.10-5.24L61.10-5.24ZM64.40-5.16L64.40-5.16Q64.40-3.86 64.89-3.10Q65.38-2.34 66.26-2.34L66.26-2.34Q67.32-2.34 67.81-3.06L67.81-3.06L67.81-7.50Q67.33-8.22 66.28-8.22L66.28-8.22Q65.40-8.22 64.90-7.44Q64.40-6.65 64.40-5.16ZM75.03-3.19L75.03-3.19Q75.81-3.19 76.33-2.73Q76.85-2.27 76.85-1.54Q76.85-0.82 76.33-0.36Q75.81 0.11 75.03 0.11L75.03 0.11Q74.24 0.11 73.73-0.36Q73.21-0.83 73.21-1.54Q73.21-2.26 73.73-2.72Q74.24-3.19 75.03-3.19ZM79.06-10.57L82.15-10.57L82.26-9.33Q83.38-10.76 85.27-10.76L85.27-10.76Q87.28-10.76 87.98-9.17L87.98-9.17Q89.05-10.76 91.08-10.76L91.08-10.76Q94.30-10.76 94.38-6.88L94.38-6.88L94.38 0L91.08 0L91.08-6.67Q91.08-7.48 90.81-7.85Q90.54-8.22 89.81-8.22L89.81-8.22Q88.84-8.22 88.36-7.35L88.36-7.35L88.37-7.22L88.37 0L85.07 0L85.07-6.65Q85.07-7.48 84.80-7.85Q84.54-8.22 83.80-8.22L83.80-8.22Q82.85-8.22 82.35-7.35L82.35-7.35L82.35 0L79.06 0L79.06-10.57ZM102.81 0L100.51-3.94L99.58-3.01L99.58 0L96.29 0L96.29-15.01L99.58-15.01L99.58-7.04L99.91-7.48L102.39-10.57L106.34-10.57L102.64-6.22L106.58 0L102.81 0Z"></path></g></g></svg>